# xmcd
#
# Track frame offsets: 
#        150
#        20682
#        35760
#        52550
#        68900
#        91297
#        113615
#        134060
#        155400
#        174750
#        192157
#        210332
#        230982
#
# Disc length: 3291 seconds
#
# Revision: 2
# Processed by: cddbd v1.5.2PL0 Copyright (c) Steve Scherf et al.
# Submitted via: ExactAudioCopy v1.0b4
#
DISCID=aa0cd90d
DTITLE=斉藤由貴 - CD-BOX1 DISC 2 「ガラスの鼓動」plus
DYEAR=2003
DGENRE=JPop
TTITLE0=千の風音
TTITLE1=月野原
TTITLE2=土曜日のタマネギ
TTITLE3=初戀
TTITLE4=情熱
TTITLE5=コスモス通信
TTITLE6=パジャマのシンデレラ
TTITLE7=お引越し・忘れもの
TTITLE8=海の絵葉書
TTITLE9=今だけの真実
TTITLE10=ささやきの妖精
TTITLE11=雪灯りの町
TTITLE12=さすらひの唄
EXTD=
EXTT0=
EXTT1=
EXTT2=
EXTT3=
EXTT4=
EXTT5=
EXTT6=
EXTT7=
EXTT8=
EXTT9=
EXTT10=
EXTT11=
EXTT12=
PLAYORDER=
